<svg width="128" height="128" viewBox="0 0 128 128" fill="none" xmlns="http://www.w3.org/2000/svg">
<g clip-path="url(#clip0_1_2)">
<rect width="128" height="128" fill="white"/>
<path d="M84.8196 23.5175C84.8196 13.9172 92.6022 6.13465 102.203 6.13465V6.13465C111.803 6.13465 119.585 13.9172 119.585 23.5175V103.479C119.585 113.079 111.803 120.862 102.203 120.862V120.862C92.6022 120.862 84.8196 113.079 84.8196 103.479V23.5175Z" fill="#9AC1FA"/>
<path d="M13.2961 35.4308C6.69543 28.4887 6.91292 17.5269 13.7838 10.8521V10.8521C20.7511 4.0836 31.9008 4.29504 38.6065 11.3228L114.952 91.3353C121.435 98.1304 121.43 108.822 114.94 115.611V115.611C108.006 122.865 96.4156 122.85 89.5008 115.577L13.2961 35.4308Z" fill="#0D6EFD"/>
<rect x="8.33496" y="86.0959" width="34.7658" height="34.7658" rx="17.3829" fill="#0D6EFD"/>
</g>
<defs>
<clipPath id="clip0_1_2">
<rect width="128" height="128" fill="white"/>
</clipPath>
</defs>
</svg>
